<?xml version="1.0" encoding="UTF-8" standalone="no"?>
<!DOCTYPE svg PUBLIC "-//W3C//DTD SVG 1.1//EN" "http://www.w3.org/Graphics/SVG/1.1/DTD/svg11.dtd">
<svg width="100%" height="100%" viewBox="0 0 481 511" version="1.1" xmlns="http://www.w3.org/2000/svg" xmlns:xlink="http://www.w3.org/1999/xlink" xml:space="preserve" xmlns:serif="http://www.serif.com/" style="fill-rule:evenodd;clip-rule:evenodd;stroke-linejoin:round;stroke-miterlimit:2;">
    <g id="Fondo" transform="matrix(1,0,0,1,0,-2)">
        <path d="M0,316.5L0,315.5C0.085,315.02 1.031,315.033 1.115,314.553C1.207,314.029 1.122,306.181 1.115,305.453C1.097,303.842 0.092,303.661 -0,303.5C0.14,303.017 0.957,302.946 1.097,302.462C1.46,301.204 2.084,295.087 2.149,294.443C2.506,290.94 9.062,271.559 9.728,269.59C10.669,266.807 10.134,266.693 20.38,234.452C24.364,221.917 23.974,220.427 43.373,161.447C46.854,150.863 51.227,141.928 52.032,140.285C58.002,128.088 63.631,104.239 103.624,83.738C274.703,-3.964 286.461,-9.197 309.24,13.759C315.725,20.294 329.378,31.942 353.244,55.757C355.047,57.556 355.2,57.381 376.256,77.753C377.758,79.205 378.174,78.66 384.265,84.737C409.618,110.03 410.073,109.525 412.272,111.727C455.154,154.658 475.126,174.516 481.021,197.539C481.105,197.869 481.868,214.752 477.619,227.548C474.604,236.624 475.82,236.905 441.633,341.555C432.236,370.318 431.033,369.826 421.619,398.549C418.791,407.176 405.306,414.777 371.716,433.933C365.27,437.609 364.769,436.621 360.262,440.207C360.086,440.348 330.535,455.37 328.271,457.219C324.451,460.338 323.179,457.93 273.72,485.933C234.444,508.171 220.687,511.482 209.505,511.9C205.218,512.061 205.204,514.519 198.59,512.264C192.128,510.061 183.764,515.15 162.748,494.252C156.573,488.111 156.873,487.756 154.423,486.622C152.964,485.947 123.176,454.923 120.423,453.617C118.362,452.64 97.981,430.268 94.419,428.629C93.667,428.283 43.344,377.869 33.744,368.257C29.705,364.213 15.228,347.291 14.387,345.571C13.606,343.974 10.041,339.959 8.724,337.384C4.527,329.179 4.064,329.423 1.391,320.541C0.571,317.816 1.171,317.767 1.085,317.542C0.905,317.074 0.18,316.968 0,316.5Z" style="fill:rgb(238,141,236);fill-opacity:0.99;"/>
        <path d="M269.585,23.982C289.71,22.117 298.924,28.055 351.966,81.039C444.952,173.924 445.954,172.881 454.033,180.962C461.651,188.582 459.582,193.919 428.277,211.108C416.016,217.84 379.671,237.796 272.266,290.051C264.538,293.811 253.033,282.341 234.94,267.007C213.523,248.855 93.32,128.574 91.852,125.374C90.488,122.402 86.238,114.945 159.396,77.299C254.863,28.175 259.104,27.005 269.585,23.982Z" style="fill:rgb(83,34,95);"/>
        <path d="M19.97,298.466C19.704,273.855 20.9,269.24 44.588,210.535C64.274,161.749 64.44,153.375 68.007,144.272C76.019,123.822 229.841,285.028 243.527,311.487C246.84,317.891 225.518,368.17 209.269,427.437C193.748,484.052 196.084,490.875 187.409,487.768C182.911,486.157 176.18,483.746 141.947,449.038C56.265,362.165 26.43,344.45 19.97,298.466Z" style="fill:rgb(88,35,100);"/>
        <path d="M450.523,224.952C463.701,225.518 461.016,235.85 449.894,262.663C439.915,286.723 428.218,312.356 421.85,336.586C404.167,403.871 393.193,407.536 333.302,436.081C233.355,483.718 234.115,485.201 225.423,489.333C203.989,499.522 218.959,448.953 241.008,385.336C257.023,339.13 246.514,327.661 315.712,286.843C333.811,276.167 424.173,230.225 450.523,224.952Z" style="fill:rgb(102,39,113);"/>
        <path d="M268.501,99.961C266.897,99.882 244.182,101.563 245.331,70.494C246.946,26.828 337.233,38.01 302.378,88.418C299.575,92.472 285.068,99.017 268.501,99.961Z" style="fill:rgb(239,131,239);"/>
        <path d="M388.515,149.92C390.241,149.976 412.173,148.087 417.514,165.496C420.44,175.035 416.118,190.114 405.183,198.079C394.405,205.929 334.528,217.516 365.745,159.637C369.389,152.879 369.667,151.184 388.515,149.92Z" style="fill:rgb(238,137,238);"/>
        <path d="M238.095,229.421C238.432,228.119 238.205,226.636 240.558,224.566C279.976,189.88 299.423,223.193 296.196,244.447C292.42,269.323 230.361,281.65 238.095,229.421Z" style="fill:rgb(239,149,235);"/>
        <path d="M96.501,243.917C86.927,242.493 51.172,220.232 78.914,187.904C88.328,176.934 95.231,180.681 96.553,181.398C113.108,190.382 122.597,208.101 124.161,216.57C128.794,241.65 103.869,243.047 96.501,243.917Z" style="fill:rgb(239,141,236);"/>
        <path d="M192.952,130.498C192.535,144.269 192.671,145.857 180.41,152.332C141.916,172.661 108.028,103.936 167.497,102.95C178.982,102.759 185.023,108.714 186.156,109.831C192.395,115.981 192.885,128.759 192.952,130.498Z" style="fill:rgb(237,141,237);"/>
        <path d="M41.907,308.549C43.102,302.757 42.931,302.794 43.744,300.581C53.739,273.381 74.661,289.391 76.85,291.066C105.449,312.949 83.523,345.839 77.575,346.909C56.912,350.627 48.399,337.41 46.979,335.207C40.921,325.8 41.783,310.716 41.907,308.549Z" style="fill:rgb(238,140,237);"/>
        <path d="M141.937,419.504C142.178,417.636 144.003,403.471 147.933,396.741C149.262,394.467 158.259,390.084 168.504,389.69C184.46,389.077 191.267,404.044 189.399,426.49C186.546,460.772 143.983,458.311 141.937,419.504Z" style="fill:rgb(237,140,238);"/>
        <path d="M222.039,312.487C217.819,363.451 143.823,328.531 178.89,286.815C182.823,282.137 182.948,279.52 197.412,281.975C202.251,282.796 209.8,285.671 214.114,289.904C223.029,298.654 221.974,311.22 222.039,312.487Z" style="fill:rgb(238,142,234);"/>
        <path d="M242.956,437.515C247.128,404.511 295.503,395.583 293.127,427.469C291.197,453.363 275.661,454.893 272.349,456.025C254.201,462.227 253.814,462.486 252.695,461.303C243.745,451.847 243.069,439.568 242.956,437.515Z" style="fill:rgb(235,145,237);"/>
        <path d="M370.489,398.044C356.029,398.068 353.8,397.056 353.607,394.49C351.698,369.119 348.706,358.76 377.483,349.443C405.093,340.503 418.222,394.01 374.528,397.78C373.184,397.896 371.833,397.928 370.489,398.044Z" style="fill:rgb(244,152,245);"/>
        <path d="M270.087,344.423C278.906,312.677 301.67,302.933 312.363,309.723C334.145,323.555 306.797,348.1 298.481,355.479C289.341,363.59 276.825,361.863 273.595,359.372C267.532,354.698 270.05,344.817 270.087,344.423Z" style="fill:rgb(231,135,231);"/>
        <path d="M432.907,258.418C433.837,273.055 421.413,303.472 397.473,296.584C382.604,292.306 371.47,268.91 419.725,247.986C424.029,246.119 430.721,251.912 432.907,258.418Z" style="fill:rgb(245,151,242);"/>
        <path d="M101.495,197.958C123.527,202.369 99.795,245.324 90.42,222.537C88.799,218.595 85.724,206.887 87.54,204.533C91.326,199.625 100.277,198.158 101.495,197.958Z" style="fill:rgb(162,75,166);"/>
        <path d="M385.465,188.058C384.662,187.967 377.402,189.143 378.923,177.573C380.409,166.271 383.468,165.751 394.53,168.386C412.655,172.702 396.743,185.432 385.465,188.058Z" style="fill:rgb(100,38,107);"/>
        <path d="M253.97,241.497C254.121,240.585 255.623,231.502 259.485,231.342C270.52,230.882 274.96,230.39 277.139,235.649C281.301,245.691 257.274,255.771 253.97,241.497Z" style="fill:rgb(126,50,130);"/>
        <path d="M285.077,65.546C285.082,66.48 286.367,76.15 281.308,79.131C273.081,83.976 258.791,64.294 271.432,60.3C273.14,59.76 276.023,60.681 276.404,60.803C282.758,62.833 283.997,62.425 285.077,65.546Z" style="fill:rgb(101,41,106);"/>
        <path d="M159.55,138.036C158.722,137.807 151.502,135.812 149.969,133.175C147.774,129.397 150.901,125.89 150.926,125.856C156.287,118.573 169.326,124.6 169.676,125.414C175.057,137.932 160.845,138.027 159.55,138.036Z" style="fill:rgb(114,52,123);"/>
        <path d="M171.918,418.504C168.62,446.866 157.115,418.252 157.953,415.643C160.543,407.583 161.992,402.32 168.567,406.4C172.311,408.723 171.898,418 171.918,418.504Z" style="fill:rgb(137,68,143);"/>
        <path d="M414.49,268.963C417.454,269.408 419.796,268.781 418.036,271.19C403.534,291.044 400.151,287.581 398.873,286.117C395.568,282.326 393.45,274.464 400.453,271.396C406.238,268.862 411.965,269.094 414.49,268.963Z" style="fill:rgb(175,93,182);"/>
        <path d="M185.912,313.425C185.824,312.472 185.032,303.87 186.474,301.48C189.222,296.927 201.45,307.392 201.5,307.5C202.142,308.865 191.523,335.07 185.912,313.425Z" style="fill:rgb(114,52,120);"/>
        <path d="M272.547,425.08C275.184,425.45 276.802,425.139 275.609,427.544C274.028,430.734 261.028,453.107 258.539,453.637C254.597,454.476 259.68,441.606 262.198,434.402C264.998,426.388 265.042,424.559 272.547,425.08Z" style="fill:rgb(160,78,161);"/>
        <path d="M71.995,316.613C66.788,331.239 54.977,318.466 57.832,311.642C60.908,304.288 61.948,301.018 68.444,305.586C73.342,309.029 72.478,313.66 71.995,316.613Z" style="fill:rgb(105,50,114);"/>
        <path d="M298.625,337.748C289.858,341.666 286.218,342.545 287.604,338.539C290.512,330.136 288.388,317.34 299.396,324.669C299.946,325.035 304.448,328.032 304.096,331.469C303.693,335.412 299.49,337.215 298.625,337.748Z" style="fill:rgb(157,74,167);"/>
        <path d="M371.897,377.499C374.199,362.664 385.471,362.491 385.636,369.493C385.85,378.56 381.467,379.646 378.595,380.747C374.129,382.46 372.846,382.171 371.897,377.499Z" style="fill:rgb(130,60,135);"/>
        <path d="M0,315.5L0,303.5C0.092,303.661 1.097,303.842 1.115,305.453C1.122,306.181 1.207,314.029 1.115,314.553C1.031,315.033 0.085,315.02 0,315.5Z" style="fill:rgb(247,200,247);fill-opacity:0.39;"/>
    </g>
</svg>
